<mxfile host="app.diagrams.net" agent="Mozilla/5.0 (Windows NT 10.0; Win64; x64) AppleWebKit/537.36 (KHTML, like Gecko) Chrome/131.0.0.0 Safari/537.36" version="25.0.3">
  <diagram name="Page-1" id="a1J6n30Imf8u8cxNewI3">
    <mxGraphModel dx="1434" dy="746" grid="1" gridSize="10" guides="1" tooltips="1" connect="1" arrows="1" fold="1" page="1" pageScale="1" pageWidth="850" pageHeight="1100" math="0" shadow="0">
      <root>
        <mxCell id="0" />
        <mxCell id="1" parent="0" />
        <mxCell id="Z7TcptgdbMG8Xb06BEEJ-12" style="edgeStyle=orthogonalEdgeStyle;rounded=0;orthogonalLoop=1;jettySize=auto;html=1;entryX=0.5;entryY=0;entryDx=0;entryDy=0;" edge="1" parent="1" source="Z7TcptgdbMG8Xb06BEEJ-1" target="Z7TcptgdbMG8Xb06BEEJ-4">
          <mxGeometry relative="1" as="geometry" />
        </mxCell>
        <mxCell id="Z7TcptgdbMG8Xb06BEEJ-1" value="&lt;font style=&quot;font-size: 24px;&quot;&gt;start&lt;/font&gt;" style="strokeWidth=2;html=1;shape=mxgraph.flowchart.start_1;whiteSpace=wrap;" vertex="1" parent="1">
          <mxGeometry x="375" y="40" width="100" height="60" as="geometry" />
        </mxCell>
        <mxCell id="Z7TcptgdbMG8Xb06BEEJ-2" value="&lt;font style=&quot;font-size: 24px;&quot;&gt;end&lt;/font&gt;" style="strokeWidth=2;html=1;shape=mxgraph.flowchart.start_1;whiteSpace=wrap;" vertex="1" parent="1">
          <mxGeometry x="375.5" y="1390" width="100" height="60" as="geometry" />
        </mxCell>
        <mxCell id="Z7TcptgdbMG8Xb06BEEJ-14" style="edgeStyle=orthogonalEdgeStyle;rounded=0;orthogonalLoop=1;jettySize=auto;html=1;entryX=0.5;entryY=0;entryDx=0;entryDy=0;" edge="1" parent="1" source="Z7TcptgdbMG8Xb06BEEJ-3" target="Z7TcptgdbMG8Xb06BEEJ-6">
          <mxGeometry relative="1" as="geometry" />
        </mxCell>
        <mxCell id="Z7TcptgdbMG8Xb06BEEJ-3" value="input newSize" style="shape=parallelogram;perimeter=parallelogramPerimeter;whiteSpace=wrap;html=1;fixedSize=1;" vertex="1" parent="1">
          <mxGeometry x="349" y="270" width="152" height="30" as="geometry" />
        </mxCell>
        <mxCell id="Z7TcptgdbMG8Xb06BEEJ-13" style="edgeStyle=orthogonalEdgeStyle;rounded=0;orthogonalLoop=1;jettySize=auto;html=1;entryX=0.5;entryY=0;entryDx=0;entryDy=0;" edge="1" parent="1" source="Z7TcptgdbMG8Xb06BEEJ-4" target="Z7TcptgdbMG8Xb06BEEJ-3">
          <mxGeometry relative="1" as="geometry" />
        </mxCell>
        <mxCell id="Z7TcptgdbMG8Xb06BEEJ-4" value="oldArray[] = {9, 2, 6, 1, 7}" style="rounded=1;whiteSpace=wrap;html=1;absoluteArcSize=1;arcSize=14;strokeWidth=2;" vertex="1" parent="1">
          <mxGeometry x="335" y="170" width="180" height="40" as="geometry" />
        </mxCell>
        <mxCell id="Z7TcptgdbMG8Xb06BEEJ-15" style="edgeStyle=orthogonalEdgeStyle;rounded=0;orthogonalLoop=1;jettySize=auto;html=1;entryX=0.5;entryY=0;entryDx=0;entryDy=0;" edge="1" parent="1" source="Z7TcptgdbMG8Xb06BEEJ-6" target="Z7TcptgdbMG8Xb06BEEJ-9">
          <mxGeometry relative="1" as="geometry" />
        </mxCell>
        <mxCell id="Z7TcptgdbMG8Xb06BEEJ-6" value="*newArray = (int *)malloc((oldsize + newSize) * sizeof(int))" style="rounded=1;whiteSpace=wrap;html=1;absoluteArcSize=1;arcSize=14;strokeWidth=2;" vertex="1" parent="1">
          <mxGeometry x="329" y="350" width="192" height="40" as="geometry" />
        </mxCell>
        <mxCell id="Z7TcptgdbMG8Xb06BEEJ-11" style="edgeStyle=orthogonalEdgeStyle;rounded=0;orthogonalLoop=1;jettySize=auto;html=1;entryX=0.5;entryY=0;entryDx=0;entryDy=0;" edge="1" parent="1" source="Z7TcptgdbMG8Xb06BEEJ-9" target="Z7TcptgdbMG8Xb06BEEJ-10">
          <mxGeometry relative="1" as="geometry" />
        </mxCell>
        <mxCell id="Z7TcptgdbMG8Xb06BEEJ-20" style="edgeStyle=orthogonalEdgeStyle;rounded=0;orthogonalLoop=1;jettySize=auto;html=1;entryX=0.5;entryY=0;entryDx=0;entryDy=0;" edge="1" parent="1" source="Z7TcptgdbMG8Xb06BEEJ-9" target="Z7TcptgdbMG8Xb06BEEJ-18">
          <mxGeometry relative="1" as="geometry" />
        </mxCell>
        <mxCell id="Z7TcptgdbMG8Xb06BEEJ-9" value="for (i &amp;lt; oldsize, i++)" style="rhombus;whiteSpace=wrap;html=1;" vertex="1" parent="1">
          <mxGeometry x="354" y="450" width="142" height="70" as="geometry" />
        </mxCell>
        <mxCell id="Z7TcptgdbMG8Xb06BEEJ-17" style="edgeStyle=orthogonalEdgeStyle;rounded=0;orthogonalLoop=1;jettySize=auto;html=1;entryX=1;entryY=1;entryDx=0;entryDy=0;" edge="1" parent="1" source="Z7TcptgdbMG8Xb06BEEJ-10" target="Z7TcptgdbMG8Xb06BEEJ-9">
          <mxGeometry relative="1" as="geometry" />
        </mxCell>
        <mxCell id="Z7TcptgdbMG8Xb06BEEJ-10" value="newArray[i] = oldArray[i]" style="rounded=1;whiteSpace=wrap;html=1;absoluteArcSize=1;arcSize=14;strokeWidth=2;" vertex="1" parent="1">
          <mxGeometry x="521" y="540" width="149" height="40" as="geometry" />
        </mxCell>
        <mxCell id="Z7TcptgdbMG8Xb06BEEJ-21" style="edgeStyle=orthogonalEdgeStyle;rounded=0;orthogonalLoop=1;jettySize=auto;html=1;entryX=0.5;entryY=0;entryDx=0;entryDy=0;" edge="1" parent="1" source="Z7TcptgdbMG8Xb06BEEJ-18" target="Z7TcptgdbMG8Xb06BEEJ-22">
          <mxGeometry relative="1" as="geometry">
            <mxPoint x="595.5" y="690" as="targetPoint" />
          </mxGeometry>
        </mxCell>
        <mxCell id="Z7TcptgdbMG8Xb06BEEJ-25" style="edgeStyle=orthogonalEdgeStyle;rounded=0;orthogonalLoop=1;jettySize=auto;html=1;entryX=0.5;entryY=0;entryDx=0;entryDy=0;" edge="1" parent="1" source="Z7TcptgdbMG8Xb06BEEJ-18" target="Z7TcptgdbMG8Xb06BEEJ-24">
          <mxGeometry relative="1" as="geometry" />
        </mxCell>
        <mxCell id="Z7TcptgdbMG8Xb06BEEJ-18" value="for (i &amp;lt; newSize, i++)" style="rhombus;whiteSpace=wrap;html=1;" vertex="1" parent="1">
          <mxGeometry x="354" y="600" width="142" height="70" as="geometry" />
        </mxCell>
        <mxCell id="Z7TcptgdbMG8Xb06BEEJ-23" style="edgeStyle=orthogonalEdgeStyle;rounded=0;orthogonalLoop=1;jettySize=auto;html=1;entryX=1;entryY=1;entryDx=0;entryDy=0;" edge="1" parent="1" source="Z7TcptgdbMG8Xb06BEEJ-22" target="Z7TcptgdbMG8Xb06BEEJ-18">
          <mxGeometry relative="1" as="geometry" />
        </mxCell>
        <mxCell id="Z7TcptgdbMG8Xb06BEEJ-22" value="input newArray[oldSize + i]" style="shape=parallelogram;perimeter=parallelogramPerimeter;whiteSpace=wrap;html=1;fixedSize=1;" vertex="1" parent="1">
          <mxGeometry x="515" y="700" width="185" height="30" as="geometry" />
        </mxCell>
        <mxCell id="Z7TcptgdbMG8Xb06BEEJ-33" style="edgeStyle=orthogonalEdgeStyle;rounded=0;orthogonalLoop=1;jettySize=auto;html=1;entryX=0.5;entryY=0;entryDx=0;entryDy=0;" edge="1" parent="1" source="Z7TcptgdbMG8Xb06BEEJ-24" target="Z7TcptgdbMG8Xb06BEEJ-31">
          <mxGeometry relative="1" as="geometry" />
        </mxCell>
        <mxCell id="Z7TcptgdbMG8Xb06BEEJ-24" value="qsort(newArray, oldsize + newSize, sizeof(int),compare" style="rounded=1;whiteSpace=wrap;html=1;absoluteArcSize=1;arcSize=14;strokeWidth=2;" vertex="1" parent="1">
          <mxGeometry x="334" y="760" width="182" height="50" as="geometry" />
        </mxCell>
        <mxCell id="Z7TcptgdbMG8Xb06BEEJ-29" style="edgeStyle=orthogonalEdgeStyle;rounded=0;orthogonalLoop=1;jettySize=auto;html=1;entryX=0.5;entryY=0;entryDx=0;entryDy=0;" edge="1" parent="1" source="Z7TcptgdbMG8Xb06BEEJ-26" target="Z7TcptgdbMG8Xb06BEEJ-28">
          <mxGeometry relative="1" as="geometry" />
        </mxCell>
        <mxCell id="Z7TcptgdbMG8Xb06BEEJ-35" style="edgeStyle=orthogonalEdgeStyle;rounded=0;orthogonalLoop=1;jettySize=auto;html=1;entryX=0.5;entryY=0;entryDx=0;entryDy=0;" edge="1" parent="1" source="Z7TcptgdbMG8Xb06BEEJ-26" target="Z7TcptgdbMG8Xb06BEEJ-32">
          <mxGeometry relative="1" as="geometry" />
        </mxCell>
        <mxCell id="Z7TcptgdbMG8Xb06BEEJ-26" value="for (i &amp;lt; oldsize, i++)" style="rhombus;whiteSpace=wrap;html=1;" vertex="1" parent="1">
          <mxGeometry x="354" y="930" width="142" height="70" as="geometry" />
        </mxCell>
        <mxCell id="Z7TcptgdbMG8Xb06BEEJ-30" style="edgeStyle=orthogonalEdgeStyle;rounded=0;orthogonalLoop=1;jettySize=auto;html=1;entryX=1;entryY=1;entryDx=0;entryDy=0;" edge="1" parent="1" source="Z7TcptgdbMG8Xb06BEEJ-28" target="Z7TcptgdbMG8Xb06BEEJ-26">
          <mxGeometry relative="1" as="geometry" />
        </mxCell>
        <mxCell id="Z7TcptgdbMG8Xb06BEEJ-28" value="output oldArray[i]" style="shape=parallelogram;perimeter=parallelogramPerimeter;whiteSpace=wrap;html=1;fixedSize=1;" vertex="1" parent="1">
          <mxGeometry x="510" y="1020" width="130" height="30" as="geometry" />
        </mxCell>
        <mxCell id="Z7TcptgdbMG8Xb06BEEJ-34" style="edgeStyle=orthogonalEdgeStyle;rounded=0;orthogonalLoop=1;jettySize=auto;html=1;entryX=0.5;entryY=0;entryDx=0;entryDy=0;" edge="1" parent="1" source="Z7TcptgdbMG8Xb06BEEJ-31" target="Z7TcptgdbMG8Xb06BEEJ-26">
          <mxGeometry relative="1" as="geometry" />
        </mxCell>
        <mxCell id="Z7TcptgdbMG8Xb06BEEJ-31" value="output&lt;br&gt;&quot;Old Array: &quot;" style="shape=parallelogram;perimeter=parallelogramPerimeter;whiteSpace=wrap;html=1;fixedSize=1;" vertex="1" parent="1">
          <mxGeometry x="360" y="850" width="130" height="30" as="geometry" />
        </mxCell>
        <mxCell id="Z7TcptgdbMG8Xb06BEEJ-32" value="output&lt;br&gt;&quot;New Array: &quot;" style="shape=parallelogram;perimeter=parallelogramPerimeter;whiteSpace=wrap;html=1;fixedSize=1;" vertex="1" parent="1">
          <mxGeometry x="360" y="1070" width="130" height="30" as="geometry" />
        </mxCell>
        <mxCell id="Z7TcptgdbMG8Xb06BEEJ-39" style="edgeStyle=orthogonalEdgeStyle;rounded=0;orthogonalLoop=1;jettySize=auto;html=1;entryX=0.5;entryY=0;entryDx=0;entryDy=0;" edge="1" parent="1" source="Z7TcptgdbMG8Xb06BEEJ-36" target="Z7TcptgdbMG8Xb06BEEJ-37">
          <mxGeometry relative="1" as="geometry" />
        </mxCell>
        <mxCell id="Z7TcptgdbMG8Xb06BEEJ-43" style="edgeStyle=orthogonalEdgeStyle;rounded=0;orthogonalLoop=1;jettySize=auto;html=1;" edge="1" parent="1" source="Z7TcptgdbMG8Xb06BEEJ-36" target="Z7TcptgdbMG8Xb06BEEJ-42">
          <mxGeometry relative="1" as="geometry" />
        </mxCell>
        <mxCell id="Z7TcptgdbMG8Xb06BEEJ-36" value="for (i &amp;lt; oldsize + newSize, i++)" style="rhombus;whiteSpace=wrap;html=1;" vertex="1" parent="1">
          <mxGeometry x="347" y="1140" width="156" height="80" as="geometry" />
        </mxCell>
        <mxCell id="Z7TcptgdbMG8Xb06BEEJ-40" style="edgeStyle=orthogonalEdgeStyle;rounded=0;orthogonalLoop=1;jettySize=auto;html=1;entryX=1;entryY=1;entryDx=0;entryDy=0;" edge="1" parent="1" source="Z7TcptgdbMG8Xb06BEEJ-37" target="Z7TcptgdbMG8Xb06BEEJ-36">
          <mxGeometry relative="1" as="geometry" />
        </mxCell>
        <mxCell id="Z7TcptgdbMG8Xb06BEEJ-37" value="output newArray[i]" style="shape=parallelogram;perimeter=parallelogramPerimeter;whiteSpace=wrap;html=1;fixedSize=1;" vertex="1" parent="1">
          <mxGeometry x="510" y="1230" width="130" height="30" as="geometry" />
        </mxCell>
        <mxCell id="Z7TcptgdbMG8Xb06BEEJ-38" style="edgeStyle=orthogonalEdgeStyle;rounded=0;orthogonalLoop=1;jettySize=auto;html=1;exitX=0.5;exitY=1;exitDx=0;exitDy=0;entryX=0.498;entryY=-0.033;entryDx=0;entryDy=0;entryPerimeter=0;" edge="1" parent="1" source="Z7TcptgdbMG8Xb06BEEJ-32" target="Z7TcptgdbMG8Xb06BEEJ-36">
          <mxGeometry relative="1" as="geometry" />
        </mxCell>
        <mxCell id="Z7TcptgdbMG8Xb06BEEJ-44" style="edgeStyle=orthogonalEdgeStyle;rounded=0;orthogonalLoop=1;jettySize=auto;html=1;" edge="1" parent="1" source="Z7TcptgdbMG8Xb06BEEJ-42" target="Z7TcptgdbMG8Xb06BEEJ-2">
          <mxGeometry relative="1" as="geometry" />
        </mxCell>
        <mxCell id="Z7TcptgdbMG8Xb06BEEJ-42" value="fee(newArray)" style="verticalLabelPosition=bottom;verticalAlign=top;html=1;shape=process;whiteSpace=wrap;rounded=1;size=0.14;arcSize=6;" vertex="1" parent="1">
          <mxGeometry x="383" y="1290" width="85" height="30" as="geometry" />
        </mxCell>
        <mxCell id="Z7TcptgdbMG8Xb06BEEJ-45" value="&lt;font style=&quot;font-size: 16px;&quot;&gt;compare( *a, *b)&lt;/font&gt;" style="strokeWidth=2;html=1;shape=mxgraph.flowchart.start_1;whiteSpace=wrap;" vertex="1" parent="1">
          <mxGeometry x="782.5" y="40" width="150" height="80" as="geometry" />
        </mxCell>
        <mxCell id="Z7TcptgdbMG8Xb06BEEJ-46" value="&lt;font style=&quot;font-size: 16px;&quot;&gt;return (*(int *) b - *(int *) a&lt;/font&gt;" style="strokeWidth=2;html=1;shape=mxgraph.flowchart.start_1;whiteSpace=wrap;" vertex="1" parent="1">
          <mxGeometry x="760" y="190" width="195" height="80" as="geometry" />
        </mxCell>
        <mxCell id="Z7TcptgdbMG8Xb06BEEJ-47" style="edgeStyle=orthogonalEdgeStyle;rounded=0;orthogonalLoop=1;jettySize=auto;html=1;entryX=0.5;entryY=0;entryDx=0;entryDy=0;entryPerimeter=0;" edge="1" parent="1" source="Z7TcptgdbMG8Xb06BEEJ-45" target="Z7TcptgdbMG8Xb06BEEJ-46">
          <mxGeometry relative="1" as="geometry" />
        </mxCell>
      </root>
    </mxGraphModel>
  </diagram>
</mxfile>
